<svg xmlns="http://www.w3.org/2000/svg" viewBox="0 0 32 32" width="24" height="24"><title>bold text</title><g class="nc-icon-wrapper" fill="#ffffff"><path fill="#ffffff" d="M21.53339,15.41882v-0.12317c2.52716-0.82831,5.05426-3.02478,5.05426-6.96228 C26.58765,4.2323,24.59869,1,17.51324,1H4v3l1.63246,0.54415C6.44914,4.81638,7,5.58066,7,6.44152v19.11696 c0,0.86086-0.55086,1.62514-1.36754,1.89737L4,28v3h13.14044c6.50507,0,11.31134-2.11383,11.31134-8.24609 C28.45178,18.6106,26.25702,15.95868,21.53339,15.41882z M13,5h3.5C18.98529,5,21,7.01471,21,9.5S18.98529,14,16.5,14H13V5z M17.5,27H13v-9h4.5c2.48529,0,4.5,2.01471,4.5,4.5S19.98529,27,17.5,27z"/></g></svg>