<svg xmlns="http://www.w3.org/2000/svg" viewBox="0 0 48 48" width="48" height="48"><title>taoism</title><g class="nc-icon-wrapper"><path d="M24,1A23,23,0,1,0,47,24,23.025,23.025,0,0,0,24,1Zm0,38a4,4,0,1,1,4-4A4,4,0,0,1,24,39Zm0-16a11.98,11.98,0,0,0-8.945,19.971A20.982,20.982,0,0,1,24,3a10,10,0,0,1,0,20Z" fill="#444"/><circle cx="24" cy="13" r="4" fill="#6767d6"/><circle cx="24" cy="35" r="4" fill="#fff"/><path d="M24,3a20.982,20.982,0,0,0-8.945,39.971A11.98,11.98,0,0,1,24,23,10,10,0,0,0,24,3Z" fill="#fff"/><circle cx="24" cy="13" r="4" fill="#444"/></g></svg>