<svg xmlns="http://www.w3.org/2000/svg" viewBox="0 0 48 48" width="48" height="48"><title>theater</title><g class="nc-icon-wrapper"><path d="M46.468,15.8a42.547,42.547,0,0,0-28.359-4.2,1,1,0,0,0-.8.835L14.741,29.8A15,15,0,1,0,44.418,34.2l2.571-17.369A1,1,0,0,0,46.468,15.8Z" fill="#ffd764"/><path d="M44.418,34.2l2.571-17.369a1,1,0,0,0-.521-1.03,42.831,42.831,0,0,0-13.815-4.559l-5.27,35.6A15.017,15.017,0,0,0,44.418,34.2Z" fill="#ea9860"/><path d="M26.25,23.43l-2.968-.439a1.5,1.5,0,0,0-.439,2.968l2.967.439a1.5,1.5,0,0,0,.44-2.968Z" fill="#fff"/><path d="M38.169,25.2l-2.968-.44a1.5,1.5,0,0,0-.439,2.968l2.967.439a1.5,1.5,0,1,0,.44-2.967Z" fill="#fff"/><path d="M28.991,35.979a5.007,5.007,0,0,0-5.679,4.214,1,1,0,0,0,.843,1.135L32.069,42.5a1,1,0,0,0,1.136-.843A5.006,5.006,0,0,0,28.991,35.979Z" fill="#fff"/><path d="M28.891,1.817A42.541,42.541,0,0,0,.532,6.014a1,1,0,0,0-.521,1.03L2.582,24.413a15,15,0,0,0,29.677-4.392L29.687,2.651A1,1,0,0,0,28.891,1.817Z" fill="#ed7064"/><path d="M28.817,1.827a42.867,42.867,0,0,0-14.47-.37l5.269,35.6a15.014,15.014,0,0,0,12.568-17.02L29.613,2.662A1,1,0,0,0,28.817,1.827Z" fill="#c94d47"/><path d="M13.5,16.215a1.5,1.5,0,0,0-1.7-1.264l-2.968.439a1.5,1.5,0,1,0,.439,2.967l2.968-.439A1.5,1.5,0,0,0,13.5,16.215Z" fill="#fff"/><path d="M23.666,13.193l-2.967.44a1.5,1.5,0,1,0,.439,2.967l2.968-.439a1.5,1.5,0,0,0-.44-2.968Z" fill="#fff"/><path d="M21.961,25.577l-7.914,1.171a1,1,0,0,0-.842,1.136A5,5,0,1,0,23.1,26.419,1,1,0,0,0,21.961,25.577Z" fill="#fff"/></g></svg>