<svg xmlns="http://www.w3.org/2000/svg" viewBox="0 0 48 48" width="48" height="48"><title>tree</title><g class="nc-icon-wrapper"><path fill="#72C472" d="M24,39c-7.89697,0-13-4.31787-13-11C11,17.87402,22.73828,3.94092,23.23779,3.35254L24,2.45557 l0.76221,0.89697C25.26172,3.94092,37,17.87402,37,28C37,34.68213,31.89697,39,24,39z"/> <path fill="#4DA34D" d="M28.29297,27.29297L25,30.58594V19c0-0.55225-0.44775-1-1-1s-1,0.44775-1,1v6.58594l-3.29297-3.29297 c-0.39062-0.39062-1.02344-0.39062-1.41406,0s-0.39062,1.02344,0,1.41406L23,28.41406V46c0,0.55225,0.44775,1,1,1s1-0.44775,1-1 V33.41406l4.70703-4.70703c0.39062-0.39062,0.39062-1.02344,0-1.41406S28.68359,26.90234,28.29297,27.29297z"/> <path fill="#A67C52" d="M34,47H14c-0.55225,0-1-0.44775-1-1s0.44775-1,1-1h20c0.55225,0,1,0.44775,1,1S34.55225,47,34,47z"/></g></svg>