<svg xmlns="http://www.w3.org/2000/svg" viewBox="0 0 48 48" width="48" height="48"><title>duck</title><g class="nc-icon-wrapper"><path d="M46.23,12.027a7.762,7.762,0,0,1-4.994-4.443A8,8,0,0,0,26,11a19.92,19.92,0,0,0,2.132,8.989l0,.011a61.893,61.893,0,0,0-21.12,3.889L1.447,21.105A1,1,0,0,0,0,22v4C0,36.477,11.317,45,24,45c12.337,0,21-5.748,21-15,0-6-5-7-5-13a2,2,0,0,1,2-2h5a1,1,0,0,0,1-1A2.233,2.233,0,0,0,46.23,12.027Z" fill="#f7bf26"/><circle cx="34.5" cy="9.5" r="1.5" fill="#212121"/><path d="M46.23,12.027A7.572,7.572,0,0,1,41.428,8h0v.012c.455,1.877.342,4.329-.956,5.139A1,1,0,0,0,41,15h6a1,1,0,0,0,1-1A2.233,2.233,0,0,0,46.23,12.027Z" fill="#f74b3b"/><path d="M20,37a1,1,0,0,1,0-2,8.009,8.009,0,0,0,8-8,1,1,0,0,1,2,0A10.011,10.011,0,0,1,20,37Z" fill="#eba40a"/><path d="M6.447,25.838,2,23.614l-2-1V24.85l5.553,2.777a1,1,0,1,0,.894-1.789Z" fill="#eba40a"/></g></svg>