<svg xmlns="http://www.w3.org/2000/svg" viewBox="0 0 48 48" width="48" height="48"><title>music</title><g class="nc-icon-wrapper"><path d="M19,9H3A1,1,0,0,1,3,7H19a1,1,0,0,1,0,2Z" fill="#444"/><path d="M19,17H3a1,1,0,0,1,0-2H19a1,1,0,0,1,0,2Z" fill="#444"/><path d="M19,25H3a1,1,0,0,1,0-2H19a1,1,0,0,1,0,2Z" fill="#444"/><path d="M34,9a7.009,7.009,0,0,1-7-7,1,1,0,0,0-2,0V33.418A7.488,7.488,0,1,0,27,38.5V12.779A12.013,12.013,0,0,0,38,20h.015a11.049,11.049,0,0,1,7.322,2.749A1,1,0,0,0,47,22,13.015,13.015,0,0,0,34,9Z" fill="#867fe8"/></g></svg>