<svg xmlns="http://www.w3.org/2000/svg" viewBox="0 0 48 48" width="48" height="48"><title>popcorn</title><g class="nc-icon-wrapper"><circle cx="12" cy="11" r="5" fill="#fbe9ba"/> <circle cx="18" cy="9" r="5" fill="#fbe9ba"/> <circle cx="31" cy="9" r="5" fill="#fbe9ba"/> <circle cx="36" cy="12" r="5" fill="#fbe9ba"/> <circle cx="24" cy="6" r="5" fill="#fbe9ba"/> <circle cx="26" cy="11" r="5" fill="#fbe9ba"/> <polygon points="41 13 7 13 11 45 37 45 41 13" fill="#badefc"/> <path d="M37,46H11a1,1,0,0,1-.992-.876l-4-32a1,1,0,1,1,1.984-.248L11.883,44H36.117l3.891-31.124a1,1,0,0,1,1.984.248l-4,32A1,1,0,0,1,37,46Z" fill="#e86c60"/> <rect x="15" y="12.969" width="2" height="32.062" transform="translate(-1.778 1.055) rotate(-3.576)" fill="#e86c60"/> <rect x="15.969" y="28" width="32.062" height="2" transform="translate(1.057 59.125) rotate(-86.417)" fill="#e86c60"/> <rect x="23" y="13" width="2" height="32" fill="#e86c60"/> <path d="M44,14H4a1,1,0,0,1,0-2H44a1,1,0,0,1,0,2Z" fill="#e6e6e6"/> <ellipse cx="24" cy="29" rx="8" ry="7" fill="#fff"/> <path d="M24,37c-4.963,0-9-3.589-9-8s4.037-8,9-8,9,3.589,9,8S28.963,37,24,37Zm0-14c-3.859,0-7,2.691-7,6s3.141,6,7,6,7-2.691,7-6S27.859,23,24,23Z" fill="#e86c60"/></g></svg>